<svg height="512" viewBox="0 0 58 58" width="512" xmlns="http://www.w3.org/2000/svg"><g id="Page-1" fill="none" fill-rule="evenodd"><g id="012---Map-Pin" fill-rule="nonzero"><path id="Shape" d="m57.52 56.66-3.52-9.93-2.15-6-1.76-4.92-1.57-4.42-.25-.7c-.1363202-.4183546-.5300769-.6984495-.97-.69h-5.57c-.5475185 1.1367403-1.1584816 2.2418156-1.83 3.31-.1216142.2139963-.2551581.4209893-.4.62-.42.65-.86 1.28-1.29 1.87-2.4698189 3.3693316-5.4174567 6.3607629-8.75 8.88l-.46.32-.11-.08c-1.4167124-1.0168121-2.7539139-2.1400614-4-3.36-1.264866-1.2078749-2.4601232-2.4865999-3.58-3.83-1.001921-1.2122566-1.9334522-2.4810088-2.79-3.8-.1448419-.1990107-.2783858-.4060037-.4-.62-.6783368-1.0677161-1.2959821-2.1728004-1.85-3.31h-5.56c-.4428242-.0261489-.84994889.2425534-1 .66l-.64 1.81-3.07 8.85-1.62 4.42-2 5.5-1.9 5.42c-.0514077.1797296-.0514077.3702704 0 .55.10064169.4691379.52030719.8006736 1 .79h55.1c.3258099-.0001386.6311253-.1589911.8182321-.4257178s.2325433-.6078823.1217679-.9142822z" fill="#f3d55b"/><path id="Shape" d="m48.49 31.36-10.28 4.44c.43-.59.87-1.22 1.29-1.87.1448419-.1990107.2783858-.4060037.4-.62.6715184-1.0681844 1.2824815-2.1732597 1.83-3.31h5.57c.4210301.0001791.7968498.2640526.94.66z" fill="#e57e25"/><path id="Shape" d="m24.87 41.56-9.18 4-9.69-4.24 3.16-8.85 12.17 5.26c1.1069412 1.3423051 2.2888239 2.6210086 3.54 3.83z" fill="#24ae5f"/><path id="Shape" d="m56.58 58h-6.06l-26-11.21 4.34-1.87.14.08.45-.32 9.89-4.26 2.66 1.14 4 1.73 8 3.44 3.54 9.93c.1120573.3097468.064391.6548103-.1274428.9225783s-.5032275.4238924-.8325572.4174217z" fill="#bdc3c7"/><path id="Shape" d="m9.78 48.06-7.36 3.18 1.96-5.5z" fill="#24ae5f"/><path id="Shape" d="m38.72 58h-37.3c-.47969281.0106736-.89935831-.3208621-1-.79l18.22-7.87z" fill="#3b97d3"/><path id="Shape" d="m51.82 40.7-6.59-2.84 4.83-2.08z" fill="#e57e25"/><circle id="Oval" cx="29" cy="16" fill="#f5efca" r="11"/><path id="Shape" d="m43.58 9.52c-3.1075106-6.87568889-10.5962302-10.64590908-17.9702211-9.04716613s-12.6288566 8.13187911-12.6097789 15.67716613c.0476398 6.0865073 1.8156801 12.035443 5.1 17.16.1216142.2139963.2551581.4209893.4.62 2.7928167 4.3016642 6.35184 8.0538917 10.5 11.07 4.14816-3.0161083 7.7071833-6.7683358 10.5-11.07.1448419-.1990107.2783858-.4060037.4-.62 3.2843199-5.124557 5.0523602-11.0734927 5.1-17.16.005748-2.2860666-.4784561-4.5468224-1.42-6.63zm-14.58 17.48c-6.0751322 0-11-4.9248678-11-11 0-6.07513225 4.9248678-11 11-11s11 4.92486775 11 11c0 2.9173814-1.1589252 5.7152744-3.2218254 7.7781746s-4.8607932 3.2218254-7.7781746 3.2218254z" fill="#e64c3c"/><path id="Shape" d="m29 28c-6.627417 0-12-5.372583-12-12s5.372583-12 12-12 12 5.372583 12 12c0 3.1825979-1.2642821 6.2348448-3.5147186 8.4852814-2.2504366 2.2504365-5.3026835 3.5147186-8.4852814 3.5147186zm0-22c-5.5228475 0-10 4.4771525-10 10s4.4771525 10 10 10 10-4.4771525 10-10c0-2.6521649-1.0535684-5.195704-2.9289322-7.07106781-1.8753638-1.87536379-4.4189029-2.92893219-7.0710678-2.92893219z" fill="#c03a2b"/></g></g></svg>